<svg id="Layer_1" data-name="Layer 1" xmlns="http://www.w3.org/2000/svg" xmlns:xlink="http://www.w3.org/1999/xlink" viewBox="0 0 25 25"><defs><style>.cls-1,.cls-5{fill:none;}.cls-1{clip-rule:evenodd;}.cls-2{clip-path:url(#clip-path);}.cls-3{fill:#414142;}.cls-4{clip-path:url(#clip-path-2);}.cls-5{stroke:#414142;stroke-miterlimit:10;stroke-width:0.81px;}</style><clipPath id="clip-path"><path class="cls-1" d="M22.5,16.06a.89.89,0,1,0-.9-.88A.89.89,0,0,0,22.5,16.06ZM11,2.94a.25.25,0,1,0-.26-.25A.25.25,0,0,0,11,2.94Zm9.41,14.13V13.66h4.25v1.13a2.28,2.28,0,0,1-2.27,2.28Zm0-15.14h2a2.28,2.28,0,0,1,2.27,2.28v9.08H20.44ZM1.74,9.5V3.07A1.14,1.14,0,0,1,2.88,1.93H20.05V17.07H8.45V15.56h8a2.28,2.28,0,0,0,2.27-2.28V5.72a2.27,2.27,0,0,0-2.27-2.27H5.31A2.28,2.28,0,0,0,3,5.72V9.5Z"/></clipPath><clipPath id="clip-path-2"><path class="cls-1" d="M3.88,22.94a.52.52,0,1,0-.51-.51A.51.51,0,0,0,3.88,22.94ZM3.75,11a.12.12,0,0,0,.13-.12.13.13,0,0,0-.26,0A.12.12,0,0,0,3.75,11Zm-2.65.26a.28.28,0,0,0-.28.28v10a.27.27,0,0,0,.28.28H6.4a.27.27,0,0,0,.28-.28V11.55a.28.28,0,0,0-.28-.28Zm.35-.77h4.6a1.14,1.14,0,0,1,1.14,1.14V21.93a1.14,1.14,0,0,1-1.14,1.14H1.45A1.14,1.14,0,0,1,.31,21.93V11.64A1.14,1.14,0,0,1,1.45,10.5Z"/></clipPath></defs><title>Artboard 1 copy 2</title><g class="cls-2"><rect class="cls-3" x="-2.32" y="-2.13" width="31.08" height="23.27"/></g><g class="cls-4"><rect class="cls-3" x="-3.76" y="6.44" width="15.01" height="20.69"/></g><path class="cls-5" d="M11.66,13.36A6.47,6.47,0,0,0,5.18,6.91"/><path class="cls-5" d="M5.18,8.46a4.91,4.91,0,0,1,4.93,4.9"/><path class="cls-5" d="M13.22,13.36a8,8,0,0,0-8-8"/></svg>