<svg id="Layer_1" data-name="Layer 1" xmlns="http://www.w3.org/2000/svg" xmlns:xlink="http://www.w3.org/1999/xlink" viewBox="0 0 25 25"><defs><style>.cls-1,.cls-2,.cls-3,.cls-6{fill:none;}.cls-2{clip-rule:evenodd;}.cls-3,.cls-6{stroke:#414142;stroke-linecap:round;stroke-width:1.44px;}.cls-3{stroke-miterlimit:10;}.cls-4{clip-path:url(#clip-path);}.cls-5{fill:#fff;}.cls-6{stroke-linejoin:round;}.cls-7{clip-path:url(#clip-path-2);}.cls-8{clip-path:url(#clip-path-3);}.cls-9{isolation:isolate;}.cls-10{clip-path:url(#clip-path-4);}.cls-11{clip-path:url(#clip-path-5);}.cls-12{fill:#010101;}.cls-13{fill:#414142;}</style><clipPath id="clip-path"><rect class="cls-1" x="0.99" y="1.17" width="23.02" height="15.83"/></clipPath><clipPath id="clip-path-2"><path class="cls-2" d="M18.48,3.48H5.8A1.13,1.13,0,0,0,4.65,4.6v9A1.13,1.13,0,0,0,5.8,14.72H18.48a1.14,1.14,0,0,0,1.16-1.13v-9A1.14,1.14,0,0,0,18.48,3.48ZM17.91,13H6.37V9.1L7.69,7.81a1.43,1.43,0,0,1,2,0l1.88,1.83.59.58.67.65a.63.63,0,0,0,.88,0,.6.6,0,0,0,0-.86L13,9.36l.44-.43a1.42,1.42,0,0,1,2,0l2.48,2.42ZM16.75,7.41a1.13,1.13,0,1,1,1.16-1.12A1.14,1.14,0,0,1,16.75,7.41Z"/></clipPath><clipPath id="clip-path-3"><rect class="cls-1" x="3.15" y="-0.27" width="17.99" height="17.99"/></clipPath><clipPath id="clip-path-4"><rect class="cls-1" x="0.99" y="-0.27" width="22.3" height="18.71"/></clipPath><clipPath id="clip-path-5"><rect class="cls-1" x="4.59" y="3.33" width="15.11" height="11.51"/></clipPath></defs><title>Artboard 1</title><line class="cls-3" x1="12.14" y1="16.64" x2="12.14" y2="23.83"/><line class="cls-3" x1="17.18" y1="16.64" x2="20.05" y2="22.39"/><line class="cls-3" x1="7.1" y1="16.64" x2="4.23" y2="22.39"/><g class="cls-4"><rect class="cls-5" x="-2.61" y="-2.43" width="30.22" height="23.02"/></g><rect class="cls-6" x="0.99" y="1.17" width="23.02" height="15.83"/><g class="cls-7"><g class="cls-8"><g class="cls-9"><g class="cls-10"><g class="cls-11"><rect class="cls-12" x="1.05" y="-0.12" width="22.18" height="18.44"/></g><g class="cls-8"><g class="cls-11"><rect class="cls-13" x="-0.45" y="-3.87" width="25.18" height="25.18"/></g></g></g></g></g></g></svg>